<svg xmlns="http://www.w3.org/2000/svg" viewBox="0 0 532.82 63.06"><defs><style>.cls-1{fill:#fff;}</style></defs><g id="Capa_2" data-name="Capa 2"><g id="Capa_1-2" data-name="Capa 1"><path class="cls-1" d="M49.52,2.87a4.66,4.66,0,0,1,2.62.82,6.13,6.13,0,0,1,1.91,2.08H0V2.87Zm5.16,8.76H0V8H54.68v3.67ZM35.83,16.79a2.5,2.5,0,0,0-.94-2.11,3,3,0,0,0-1.8-.7H0v-.7H54.68v4.14H35.83ZM0,18.91H18.93v4.38H0ZM53.11,45a4.82,4.82,0,0,1-3.59,1.65H0V23.83H18.93V35.57H33.09a3.11,3.11,0,0,0,1.8-.7,2.51,2.51,0,0,0,.94-2.12V23.83H54.68V41.28A5.25,5.25,0,0,1,53.11,45ZM35.83,18.52H54.68v4.77H35.83Z"/><path class="cls-1" d="M61.72,2.87H80.49v2.9H61.72Zm0,5.09H80.49v3.67H61.72Zm0,5.32H80.49v4.14H61.72Zm0,5.24H80.49v4.77H61.72Zm0,5.31H80.49V46.68H61.72Z"/><path class="cls-1" d="M106.31,5.77H87.53V2.87h18.78ZM87.53,8h18.78v3.67H87.53Zm0,5.32h18.78v4.14H87.53Zm0,5.24h18.78v4.77H87.53Zm0,5.31h18.78V46.68H87.53Zm26.21-10.55H134l-3.29,4.14H111.78V15.78Zm-2,5.24h18.07l-3.75,4.77H111.78Zm0,15.41V23.83h13.93l-.79,1,17.21,21.83H121.87Zm6.1-26h20.26l-2.89,3.67H115Zm22-2.19H119.6L122,2.87h20.18Z"/><path class="cls-1" d="M146.91,8.27V8h54.6v3.67h-54.6Zm35.74,8.52a2.47,2.47,0,0,0-.94-2.11,3,3,0,0,0-1.79-.7H168.49a3,3,0,0,0-1.79.7,2.47,2.47,0,0,0-.94,2.11v.63H146.91V13.28h54.6v4.14H182.65Zm-35.74,1.73h18.85v4.77H146.91Zm35.74,5.31h18.86V41.28A5.29,5.29,0,0,1,199.94,45a4.82,4.82,0,0,1-3.6,1.65H152.07a4.82,4.82,0,0,1-3.6-1.65,5.28,5.28,0,0,1-1.56-3.75V23.83h18.85v8.92a2.49,2.49,0,0,0,.94,2.12,3.06,3.06,0,0,0,1.79.7h11.43a3.06,3.06,0,0,0,1.79-.7,2.49,2.49,0,0,0,.94-2.12ZM149.41,3.69a4.81,4.81,0,0,1,2.66-.82h44.27a4.64,4.64,0,0,1,2.62.82,6.07,6.07,0,0,1,1.92,2.08H147.53A5.27,5.27,0,0,1,149.41,3.69Zm33.24,14.83h18.86v4.77H182.65Z"/><path class="cls-1" d="M208.55,2.87h18.77v2.9H208.55Zm0,5.09h18.77v3.67H208.55Zm0,5.32h18.77v4.14H208.55Zm0,5.24h18.77v4.77H208.55Zm0,5.31h18.77V46.68H208.55Z"/><path class="cls-1" d="M234.36,8.27V8h20.73l4.38,3.67H234.36Zm0,5h27.07l5,4.14H234.36Zm0,5.24h33.32l5.71,4.77h-39Zm39.82,5.39v-.08H293V41.28A5.25,5.25,0,0,1,291.38,45a4.82,4.82,0,0,1-3.59,1.65h-5.32a13.71,13.71,0,0,1-3.6-.51,8,8,0,0,1-3.21-1.68l-22.6-18.78v21h-18.7V23.83H274.1ZM248.44,3.38a8,8,0,0,1,3.21,1.68l.86.71H235a5.35,5.35,0,0,1,1.88-2.08,4.84,4.84,0,0,1,2.66-.82h5.32A13.71,13.71,0,0,1,248.44,3.38ZM293,5.77H274.18V2.87H293ZM274.18,8H293v3.67H274.18Zm0,5.32H293v4.14H274.18Zm0,5.24H293v4.77H274.18Z"/><path class="cls-1" d="M122.14,60.17V51.49h12.1V53h-9.33v1.9h5.44v1.49h-5.44v2.14h9.48v1.62Z"/><path class="cls-1" d="M138.36,60.17V51.49h1.89l9.58,5.76V51.49h2.49v8.68h-1.9l-9.55-5.85v5.85Z"/><path class="cls-1" d="M168.43,53.08h-8.59v5.43h8.59V56.66H164V55.12h7.18v3a1.88,1.88,0,0,1-.6,1.62,4.34,4.34,0,0,1-2.33.43H160a4.32,4.32,0,0,1-2.33-.43,1.89,1.89,0,0,1-.61-1.62V53.54a1.89,1.89,0,0,1,.61-1.62,4.32,4.32,0,0,1,2.33-.43h8.17a4.45,4.45,0,0,1,2.32.42,1.71,1.71,0,0,1,.61,1.52v.24l-2.7.35Z"/><path class="cls-1" d="M175.84,60.17V51.49h2.73v8.68Z"/><path class="cls-1" d="M183.61,60.17V51.49h1.89l9.58,5.76V51.49h2.49v8.68h-1.91l-9.55-5.85v5.85Z"/><path class="cls-1" d="M202.61,60.17V51.49h12.11V53h-9.33v1.9h5.43v1.49h-5.43v2.14h9.47v1.62Z"/><path class="cls-1" d="M218.84,60.17V51.49H231V53h-9.34v1.9h5.44v1.49h-5.44v2.14h9.48v1.62Z"/><path class="cls-1" d="M235.07,60.17V51.49h10.16a3.83,3.83,0,0,1,2,.4,1.39,1.39,0,0,1,.63,1.28v2a1.38,1.38,0,0,1-.63,1.27,3.94,3.94,0,0,1-2,.39h-1.55l5.37,3.29h-4l-4.73-3.29h-2.59v3.29Zm9-7.19h-6.28v2.41h6.28a2,2,0,0,0,1-.16.58.58,0,0,0,.27-.54v-1a.59.59,0,0,0-.27-.55A2.17,2.17,0,0,0,244.06,53Z"/><path class="cls-1" d="M252.41,60.17V51.49h2.74v8.68Z"/><path class="cls-1" d="M260.18,60.17V51.49h1.89l9.58,5.76V51.49h2.49v8.68h-1.9l-9.56-5.85v5.85Z"/><path class="cls-1" d="M290.25,53.08h-8.59v5.43h8.59V56.66h-4.48V55.12H293v3a1.86,1.86,0,0,1-.61,1.62,4.28,4.28,0,0,1-2.32.43h-8.17a4.32,4.32,0,0,1-2.33-.43,1.86,1.86,0,0,1-.61-1.62V53.54a1.86,1.86,0,0,1,.61-1.62,4.32,4.32,0,0,1,2.33-.43H290a4.45,4.45,0,0,1,2.32.42,1.71,1.71,0,0,1,.61,1.52v.24l-2.7.35Z"/><rect class="cls-1" y="51.48" width="81.3" height="8.7"/><rect class="cls-1" x="83.15" y="51.48" width="9.24" height="8.7"/><rect class="cls-1" x="94.24" y="51.5" width="7.39" height="8.68"/><rect class="cls-1" x="103.48" y="51.48" width="5.54" height="8.7"/><rect class="cls-1" x="110.87" y="51.48" width="3.7" height="8.7"/><rect class="cls-1" x="116.41" y="51.5" width="1.85" height="8.68"/><path class="cls-1" d="M334.57,26.09h-.06V44.27h-4.16v-24h6.3l7.49,17.79,7.63-17.79h6.17v24h-4.16V26.09h-.06L346,44.27H342.3Z"/><path class="cls-1" d="M372.73,20.28h5.34l11.65,24h-5l-2.51-5.51H368.44l-2.55,5.51h-5Zm7.69,14.46-5-10.7-5,10.7Z"/><path class="cls-1" d="M392.82,20.28h5l16,17.33V20.28h4.48v24H414l-16.7-18v18h-4.49Z"/><path class="cls-1" d="M449.46,34a12.53,12.53,0,0,1-.89,5A8.67,8.67,0,0,1,446,42.33a10.63,10.63,0,0,1-4,1.93,23.33,23.33,0,0,1-10.6,0,10.63,10.63,0,0,1-4-1.93,8.58,8.58,0,0,1-2.54-3.39,12.53,12.53,0,0,1-.89-5V20.28h4.69V33.65a11.21,11.21,0,0,0,.33,2.78,5.29,5.29,0,0,0,1.22,2.3,5.82,5.82,0,0,0,2.46,1.55,14.85,14.85,0,0,0,8.08,0,5.82,5.82,0,0,0,2.46-1.55,5.29,5.29,0,0,0,1.22-2.3,11.21,11.21,0,0,0,.33-2.78V20.28h4.69Z"/><path class="cls-1" d="M463.55,20.28h5.35l11.65,24H475.6l-2.51-5.51H459.26l-2.54,5.51h-5Zm7.69,14.46-5-10.7-5,10.7Z"/><path class="cls-1" d="M483.65,20.28h4.69V40.12h17.39v4.15H483.65Z"/><path class="cls-1" d="M528,27.57a6,6,0,0,0-.85-1.51,4.58,4.58,0,0,0-1.51-1.27,8.94,8.94,0,0,0-2.45-.88,16.7,16.7,0,0,0-3.61-.33,17.87,17.87,0,0,0-2.33.16,10.12,10.12,0,0,0-2,.52,3.81,3.81,0,0,0-1.45.92,2,2,0,0,0-.55,1.4,1.92,1.92,0,0,0,.17.78,1.85,1.85,0,0,0,.72.74,6.28,6.28,0,0,0,1.64.66,20.19,20.19,0,0,0,2.85.53l5.68.86a18.73,18.73,0,0,1,3.59.86,9.59,9.59,0,0,1,2.69,1.4,5.75,5.75,0,0,1,1.69,2,6,6,0,0,1,.57,2.67,6.53,6.53,0,0,1-.94,3.61,7.39,7.39,0,0,1-2.55,2.41,11.77,11.77,0,0,1-3.77,1.35,23.6,23.6,0,0,1-4.55.42,20.54,20.54,0,0,1-6.35-.83,13.66,13.66,0,0,1-4-1.95,8,8,0,0,1-2.16-2.27,9.34,9.34,0,0,1-.88-1.85l4.52-1.42A9.91,9.91,0,0,0,513,38a5.6,5.6,0,0,0,1.55,1.39,9.1,9.1,0,0,0,2.59,1.07,15.29,15.29,0,0,0,4,.43,15.72,15.72,0,0,0,2.71-.23,9,9,0,0,0,2.23-.66,4.75,4.75,0,0,0,1.5-1,2,2,0,0,0,.56-1.4c0-1.56-1.74-2.57-5.22-3l-5.74-.79a13.09,13.09,0,0,1-6.42-2.31,5.49,5.49,0,0,1-2.23-4.52,6.13,6.13,0,0,1,.7-3A6.41,6.41,0,0,1,511,21.81a8.3,8.3,0,0,1,2.43-1.23A16.55,16.55,0,0,1,516,20a17.93,17.93,0,0,1,2.24-.23l1.47,0a20.74,20.74,0,0,1,6.26.77,12.4,12.4,0,0,1,3.74,1.83,7.11,7.11,0,0,1,1.92,2.13,15.7,15.7,0,0,1,.79,1.7Z"/><rect class="cls-1" x="309.74" width="1.12" height="63.06"/></g></g></svg>