<svg xmlns="http://www.w3.org/2000/svg" viewBox="0 0 369.87 78.6"><defs><style>.cls-1,.cls-2{fill:#fff;}.cls-2{fill-opacity:0.2;}</style></defs><g id="Capa_2" data-name="Capa 2"><g id="Capa_1-2" data-name="Capa 1"><path class="cls-1" d="M52.79,9.9a5,5,0,0,1,2.8.88,6.44,6.44,0,0,1,2,2.21H0V9.9Zm5.51,9.35H0V15.32H58.3v3.93Zm-20.1,5.5a2.65,2.65,0,0,0-1-2.25,3.25,3.25,0,0,0-1.92-.75H0V21H58.3v4.42H38.2ZM0,27H20.18v4.67H0ZM56.63,54.86a5.18,5.18,0,0,1-3.84,1.75H0V32.25H20.18V44.76h15.1A3.3,3.3,0,0,0,37.2,44a2.68,2.68,0,0,0,1-2.26V32.25H58.3v18.6A5.66,5.66,0,0,1,56.63,54.86ZM38.2,26.58H58.3v5.09H38.2Z"/><path class="cls-1" d="M85.82,13h-20V9.9h20Zm-20,2.33h20v3.93h-20Zm0,5.68h20v4.42h-20Zm0,5.58h20v5.09h-20Zm0,5.67h20V56.61h-20ZM93.74,21h21.6l-3.5,4.42H91.66V23.66Zm-2.08,5.58h19.26l-4,5.09H91.66Zm0,16.43V32.25H106.5l-.83,1.09L124,56.61H102.41Zm6.5-27.69h21.6l-3.08,3.93H95.08ZM121.6,13H100l2.5-3.09H124Z"/><rect class="cls-1" y="61.73" width="85.26" height="9.28"/><rect class="cls-1" x="87.2" y="61.73" width="9.69" height="9.28"/><rect class="cls-1" x="98.82" y="61.75" width="7.75" height="9.26"/><rect class="cls-1" x="108.52" y="61.73" width="5.81" height="9.28"/><rect class="cls-1" x="116.26" y="61.73" width="3.88" height="9.28"/><rect class="cls-1" x="122.08" y="61.75" width="1.94" height="9.26"/><path class="cls-1" d="M171.62,33.86h-.07V52.05h-4.16v-24h6.31l7.49,17.79,7.62-17.79H195v24h-4.15V33.86h-.07l-7.69,18.19h-3.73Z"/><path class="cls-1" d="M209.77,28.05h5.35l11.65,24h-5l-2.51-5.51H205.48l-2.54,5.51h-5Zm7.69,14.46-5-10.69-5,10.69Z"/><path class="cls-1" d="M229.87,28.05h4.95l16,17.33V28.05h4.49v24h-4.29l-16.7-18v18h-4.49Z"/><path class="cls-1" d="M286.5,41.75a12.4,12.4,0,0,1-.89,5,8.62,8.62,0,0,1-2.54,3.38,10.63,10.63,0,0,1-4,1.93,23.29,23.29,0,0,1-10.59,0,10.55,10.55,0,0,1-4-1.93,8.62,8.62,0,0,1-2.54-3.38,12.4,12.4,0,0,1-.9-5V28.05h4.69V41.42a11.35,11.35,0,0,0,.33,2.79,5.36,5.36,0,0,0,1.22,2.29,5.94,5.94,0,0,0,2.46,1.55,14.89,14.89,0,0,0,8.09,0,5.84,5.84,0,0,0,2.45-1.55,5.27,5.27,0,0,0,1.23-2.29,11.35,11.35,0,0,0,.33-2.79V28.05h4.68Z"/><path class="cls-1" d="M300.59,28.05h5.35l11.65,24h-4.95l-2.51-5.51H296.3l-2.54,5.51h-5Zm7.7,14.46-5-10.69-5,10.69Z"/><path class="cls-1" d="M320.69,28.05h4.69V47.89h17.39v4.16H320.69Z"/><path class="cls-1" d="M365.05,35.35a6.15,6.15,0,0,0-.84-1.52,4.62,4.62,0,0,0-1.52-1.27,9.2,9.2,0,0,0-2.44-.88,16.86,16.86,0,0,0-3.62-.33,16.14,16.14,0,0,0-2.32.17,9.76,9.76,0,0,0-2.05.51,3.89,3.89,0,0,0-1.45.92,2,2,0,0,0-.55,1.41,1.91,1.91,0,0,0,.17.77,1.83,1.83,0,0,0,.73.75,6,6,0,0,0,1.63.66,22.67,22.67,0,0,0,2.85.52l5.68.86a19.82,19.82,0,0,1,3.6.86,9.87,9.87,0,0,1,2.69,1.4,5.61,5.61,0,0,1,1.68,2,5.83,5.83,0,0,1,.58,2.67,6.57,6.57,0,0,1-.94,3.62,7.42,7.42,0,0,1-2.56,2.41,12.2,12.2,0,0,1-3.76,1.35,24.55,24.55,0,0,1-4.56.41,20.57,20.57,0,0,1-6.35-.82,13.79,13.79,0,0,1-4-2,8.12,8.12,0,0,1-2.16-2.28,8.44,8.44,0,0,1-.87-1.85l4.52-1.42a10.42,10.42,0,0,0,.87,1.41,5.9,5.9,0,0,0,1.55,1.38,9.6,9.6,0,0,0,2.6,1.08,15.68,15.68,0,0,0,4,.42,14.75,14.75,0,0,0,2.7-.23,9,9,0,0,0,2.23-.66,4.39,4.39,0,0,0,1.5-1,2,2,0,0,0,.56-1.4q0-2.34-5.21-3l-5.74-.79a13.22,13.22,0,0,1-6.42-2.31,5.5,5.5,0,0,1-2.23-4.53,6.16,6.16,0,0,1,.69-3,6.5,6.5,0,0,1,1.78-2,8.45,8.45,0,0,1,2.43-1.24,17.73,17.73,0,0,1,4.82-.86l1.47,0a21,21,0,0,1,6.25.77,12.23,12.23,0,0,1,3.75,1.84,6.71,6.71,0,0,1,1.91,2.13,15.72,15.72,0,0,1,.79,1.69Z"/><rect class="cls-2" x="146.78" width="1.12" height="78.6"/></g></g></svg>