<?xml version="1.0" encoding="utf-8"?>
<!-- Generator: Adobe Illustrator 16.0.0, SVG Export Plug-In . SVG Version: 6.00 Build 0)  -->
<!DOCTYPE svg PUBLIC "-//W3C//DTD SVG 1.1//EN" "http://www.w3.org/Graphics/SVG/1.1/DTD/svg11.dtd">
<svg version="1.1" id="Layer_1" xmlns="http://www.w3.org/2000/svg" xmlns:xlink="http://www.w3.org/1999/xlink" x="0px" y="0px"
	 width="960px" height="560px" viewBox="0 0 960 560" enable-background="new 0 0 960 560" xml:space="preserve">
<g>
	<path fill="#FFFFFF" d="M411.149,54.494c7.385,0,14.26,2.166,20.623,6.471c6.364,4.309,11.393,9.737,15.091,16.311H21.455V54.494
		H411.149z M451.781,123.451H21.455V94.513h430.326v2.467V123.451z M303.405,164.072c0-7.374-2.465-12.928-7.384-16.612
		c-4.93-3.706-9.651-5.548-14.159-5.548H21.455v-5.532h430.326v32.622H303.405V164.072z M21.455,180.707h148.967v34.471H21.455
		V180.707z M439.468,386.332c-8.215,8.617-17.646,12.926-28.319,12.926H21.455V219.486h148.967v92.351h111.44
		c4.508,0,9.229-1.843,14.159-5.532c4.918-3.71,7.384-9.238,7.384-16.632v-70.187h148.376v137.302
		C451.781,367.874,447.675,377.712,439.468,386.332 M303.405,177.619h148.376v37.555H303.405V177.619z"/>
	<path fill="#FFFFFF" d="M654.941,77.276H507.187V54.494h147.755V77.276z M507.187,94.513h147.755v28.938H507.187V94.513z
		 M507.187,136.38h147.755v32.619H507.187V136.38z M507.187,177.619h147.755v37.555H507.187V177.619z M507.187,219.486h147.755
		v179.775H507.187V219.486z M713.421,136.38h159.472l-25.863,32.622H698.032v-12.925L713.421,136.38z M698.032,177.619h142.234
		l-29.563,37.559H698.032V177.619z M698.032,298.911v-79.425h109.597l-6.163,7.996l135.46,171.776H777.454L698.032,298.911z
		 M746.062,94.513h159.46l-22.788,28.938h-159.45L746.062,94.513z M919.07,77.276H759.599l18.477-22.782h158.851L919.07,77.276z"/>
	<rect x="21.436" y="437.076" fill="#FFFFFF" width="629.401" height="68.499"/>
	<rect x="665.124" y="437.076" fill="#FFFFFF" width="71.536" height="68.499"/>
	<rect x="750.954" y="437.236" fill="#FFFFFF" width="57.227" height="68.339"/>
	<rect x="822.49" y="437.076" fill="#FFFFFF" width="42.918" height="68.499"/>
	<rect x="879.698" y="437.076" fill="#FFFFFF" width="28.622" height="68.499"/>
	<rect x="922.636" y="437.236" fill="#FFFFFF" width="14.29" height="68.339"/>
</g>
</svg>
