<?xml version="1.0" encoding="utf-8"?>
<!-- Generator: Adobe Illustrator 16.0.0, SVG Export Plug-In . SVG Version: 6.00 Build 0)  -->
<!DOCTYPE svg PUBLIC "-//W3C//DTD SVG 1.1//EN" "http://www.w3.org/Graphics/SVG/1.1/DTD/svg11.dtd">
<svg version="1.1" id="Layer_1" xmlns="http://www.w3.org/2000/svg" xmlns:xlink="http://www.w3.org/1999/xlink" x="0px" y="0px"
	 width="960px" height="322px" viewBox="0 103.5 960 322" enable-background="new 0 103.5 960 322" xml:space="preserve">
<g>
	<path fill="#FFFFFF" d="M29.871,235.544h-0.325v84.399H10.245V208.586h29.278l34.751,82.544l35.357-82.544h28.721v111.357h-19.256
		v-84.399h-0.325l-35.682,84.399H65.785L29.871,235.544z"/>
	<path fill="#FFFFFF" d="M206.884,208.586h24.825l54.055,111.357h-23.2l-11.646-25.565h-63.939l-11.784,25.565h-23.2
		L206.884,208.586z M242.566,275.679l-23.2-49.602l-23.2,49.602H242.566z"/>
	<path fill="#FFFFFF" d="M300.146,208.586h22.968l74.239,80.41v-80.41h20.834v111.357h-19.906l-77.488-83.517v83.517h-20.833
		L300.146,208.586z"/>
	<path fill="#FFFFFF" d="M562.906,272.152c0.239,7.937-1.167,15.834-4.129,23.2c-2.566,6.126-6.616,11.515-11.786,15.683
		c-5.486,4.259-11.812,7.311-18.56,8.955c-16.162,3.772-32.976,3.772-49.137,0c-6.752-1.634-13.079-4.688-18.561-8.955
		c-5.169-4.168-9.22-9.557-11.784-15.683c-2.979-7.362-4.401-15.259-4.176-23.2v-63.566h21.761v62.036
		c-0.027,4.362,0.487,8.711,1.531,12.946c0.988,3.951,2.932,7.6,5.66,10.625c3.151,3.305,7.074,5.776,11.415,7.19
		c12.272,3.466,25.265,3.466,37.537,0c4.333-1.403,8.244-3.877,11.368-7.19c2.761-3.01,4.721-6.664,5.707-10.625
		c1.045-4.235,1.56-8.583,1.531-12.946v-62.036h21.714L562.906,272.152z"/>
	<path fill="#FFFFFF" d="M628.283,208.586h24.823l54.055,111.357h-22.968l-11.646-25.565h-64.17l-11.785,25.565h-23.2
		L628.283,208.586z M664.011,275.679l-23.199-49.602l-23.2,49.602H664.011z"/>
	<path fill="#FFFFFF" d="M721.546,208.586h21.762v92.056h80.688v19.301H721.546V208.586z"/>
	<path fill="#FFFFFF" d="M927.372,242.457c-0.959-2.522-2.271-4.896-3.896-7.051c-1.898-2.451-4.304-4.462-7.053-5.894
		c-3.562-1.89-7.375-3.264-11.322-4.084c-5.526-1.113-11.158-1.627-16.796-1.531c-3.604,0.004-7.201,0.268-10.765,0.79
		c-3.247,0.441-6.437,1.235-9.513,2.367c-2.531,0.902-4.83,2.361-6.728,4.268c-1.675,1.762-2.591,4.111-2.551,6.542
		c0.01,1.232,0.279,2.449,0.787,3.573c0.767,1.465,1.945,2.675,3.389,3.479c2.356,1.386,4.904,2.418,7.563,3.062
		c4.353,1.086,8.77,1.893,13.225,2.413l26.354,3.991c5.682,0.807,11.273,2.142,16.704,3.99c4.471,1.509,8.68,3.699,12.482,6.496
		c3.291,2.436,5.962,5.616,7.795,9.279c1.864,3.857,2.788,8.103,2.69,12.389c0.204,5.902-1.312,11.736-4.361,16.796
		c-3.006,4.625-7.081,8.46-11.878,11.182c-5.433,3.032-11.327,5.148-17.447,6.264c-6.979,1.292-14.061,1.93-21.157,1.901
		c-9.96,0.277-19.902-1.006-29.464-3.804c-6.651-2.062-12.919-5.197-18.56-9.279c-3.997-2.842-7.401-6.435-10.022-10.579
		c-1.688-2.687-3.044-5.571-4.036-8.584l20.973-6.589c1.169,2.285,2.519,4.473,4.036,6.542c2,2.543,4.436,4.71,7.192,6.403
		c3.752,2.254,7.817,3.941,12.063,5.01c6.077,1.444,12.314,2.101,18.56,1.95c4.2,0.03,8.394-0.328,12.527-1.068
		c3.566-0.567,7.046-1.597,10.348-3.062c2.616-1.048,4.985-2.628,6.96-4.641c1.68-1.742,2.611-4.073,2.598-6.494
		c0-7.238-8.059-11.877-24.174-13.92l-26.634-3.664c-10.696-0.906-20.967-4.603-29.788-10.72
		c-6.651-4.916-10.508-12.749-10.347-21.019c-0.128-4.836,0.974-9.625,3.201-13.919c2.079-3.633,4.892-6.793,8.26-9.28
		c3.422-2.517,7.229-4.459,11.273-5.753c7.235-2.358,14.763-3.701,22.365-3.991h6.821c9.79-0.273,19.568,0.931,28.999,3.574
		c6.246,1.826,12.133,4.714,17.4,8.537c3.629,2.618,6.653,5.989,8.861,9.883c1.377,2.538,2.602,5.156,3.666,7.842L927.372,242.457z"
		/>
</g>
</svg>
