<?xml version="1.0" encoding="utf-8"?>
<!-- Generator: Adobe Illustrator 16.0.0, SVG Export Plug-In . SVG Version: 6.00 Build 0)  -->
<!DOCTYPE svg PUBLIC "-//W3C//DTD SVG 1.1//EN" "http://www.w3.org/Graphics/SVG/1.1/DTD/svg11.dtd">
<svg version="1.1" id="Layer_1" xmlns="http://www.w3.org/2000/svg" xmlns:xlink="http://www.w3.org/1999/xlink" x="0px" y="0px"
	 width="847.408px" height="193.333px" viewBox="0 0 847.408 193.333" enable-background="new 0 0 847.408 193.333"
	 xml:space="preserve">
<g>
	<g>
		<path fill="#005B8C" d="M151.114,16.103c2.638,0,5.094,0.772,7.367,2.311c2.272,1.538,4.069,3.479,5.39,5.827H11.914v-8.138
			H151.114z M165.628,40.735H11.914V30.398h153.715v0.88V40.735z M112.627,55.245c0-2.635-0.88-4.618-2.638-5.936
			c-1.761-1.323-3.447-1.981-5.058-1.981H11.914v-1.976h153.715v11.652h-53.001V55.245z M11.914,61.186h53.212V73.5H11.914V61.186z
			 M161.23,134.636c-2.936,3.078-6.304,4.617-10.116,4.617h-139.2V75.038h53.212v32.989h39.807c1.61,0,3.297-0.66,5.058-1.977
			c1.758-1.325,2.638-3.301,2.638-5.942v-25.07h53.001v49.045C165.628,128.042,164.161,131.556,161.23,134.636z M112.627,60.083
			h53.001V73.5h-53.001V60.083z"/>
		<path fill="#005B8C" d="M185.418,16.103h52.782v8.138h-52.782V16.103z M185.418,30.398h52.782v10.337h-52.782V30.398z
			 M185.418,45.352h52.782v11.652h-52.782V45.352z M185.418,60.083h52.782V73.5h-52.782V60.083z M185.418,75.038h52.782v64.216
			h-52.782V75.038z"/>
		<path fill="#005B8C" d="M310.77,24.241h-52.777v-8.138h52.777V24.241z M257.993,30.398h52.777v10.337h-52.777V30.398z
			 M257.993,45.352h52.777v11.652h-52.777V45.352z M257.993,60.083h52.777V73.5h-52.777V60.083z M257.993,75.038h52.777v64.216
			h-52.777V75.038z M331.66,45.352h56.965l-9.239,11.652h-53.222v-4.616L331.66,45.352z M326.164,60.083h50.805L366.409,73.5
			h-40.245V60.083z M326.164,103.409V75.038h39.147l-2.202,2.856l48.388,61.359h-56.964L326.164,103.409z M343.319,30.398h56.959
			l-8.14,10.337h-56.955L343.319,30.398z M405.118,24.241h-56.964l6.601-8.138h56.742L405.118,24.241z"/>
		<path fill="#005B8C" d="M424.913,31.278v-0.88h153.504v0.88v9.457H424.913V31.278z M525.416,55.245
			c0-2.635-0.881-4.618-2.643-5.936c-1.757-1.323-3.443-1.981-5.053-1.981h-32.111c-1.615,0-3.297,0.658-5.059,1.981
			c-1.761,1.317-2.637,3.301-2.637,5.936v1.76h-53.001V45.352h153.504v11.652h-53.001V55.245z M424.913,60.083h53.001V73.5h-53.001
			V60.083z M525.416,75.038h53.001v49.045c0,3.96-1.468,7.474-4.399,10.554c-2.936,3.078-6.307,4.617-10.116,4.617H439.426
			c-3.815,0-7.184-1.539-10.119-4.617c-2.932-3.08-4.395-6.594-4.395-10.554V75.038h53.001v25.07c0,2.642,0.876,4.617,2.637,5.942
			c1.762,1.316,3.443,1.977,5.059,1.977h32.111c1.609,0,3.296-0.66,5.053-1.977c1.762-1.325,2.643-3.301,2.643-5.942V75.038z
			 M431.949,18.414c2.341-1.538,4.84-2.311,7.478-2.311h124.475c2.638,0,5.09,0.772,7.366,2.311c2.27,1.538,4.069,3.479,5.391,5.827
			H426.672C427.839,21.892,429.6,19.952,431.949,18.414z M525.416,60.083h53.001V73.5h-53.001V60.083z"/>
		<path fill="#005B8C" d="M598.207,16.103h52.782v8.138h-52.782V16.103z M598.207,30.398h52.782v10.337h-52.782V30.398z
			 M598.207,45.352h52.782v11.652h-52.782V45.352z M598.207,60.083h52.782V73.5h-52.782V60.083z M598.207,75.038h52.782v64.216
			h-52.782V75.038z"/>
		<path fill="#005B8C" d="M670.779,31.278v-0.88h58.277l12.316,10.337h-70.594V31.278z M670.779,45.352h76.093l14.074,11.652
			h-90.167V45.352z M670.779,60.083h93.686L780.521,73.5H670.779V60.083z M782.719,75.259v-0.222h52.782v49.045
			c0,3.96-1.468,7.474-4.402,10.554c-2.936,3.078-6.304,4.617-10.115,4.617h-14.956c-3.225,0-6.596-0.473-10.114-1.426
			c-3.519-0.951-6.526-2.534-9.017-4.731l-63.558-52.781v58.938h-52.561V75.038h111.719L782.719,75.259z M710.364,17.533
			c3.519,0.952,6.521,2.527,9.017,4.726l2.421,1.982h-49.264c1.174-2.349,2.931-4.289,5.279-5.827
			c2.345-1.538,4.835-2.311,7.478-2.311h14.955C703.471,16.103,706.846,16.583,710.364,17.533z M835.501,24.241h-52.782v-8.138
			h52.782V24.241z M782.719,30.398h52.782v10.337h-52.782V30.398z M782.719,45.352h52.782v11.652h-52.782V45.352z M782.719,60.083
			h52.782V73.5h-52.782V60.083z"/>
	</g>
	<g>
		<path fill="#005B8C" d="M355.277,177.197v-24.414h34.041v4.316h-26.237v5.326h15.283v4.203h-15.283v6h26.642v4.568H355.277z"/>
		<path fill="#005B8C" d="M400.901,177.197v-24.414h5.312l26.932,16.209v-16.209h7.002v24.414h-5.352l-26.859-16.461v16.461H400.901
			z"/>
		<path fill="#005B8C" d="M485.44,157.265h-24.15v15.254h24.15v-5.189h-12.607v-4.338h20.188v8.426c0,2.234-0.565,3.76-1.704,4.568
			c-1.134,0.809-3.314,1.211-6.539,1.211h-22.977c-3.222,0-5.405-0.402-6.539-1.211c-1.136-0.809-1.705-2.334-1.705-4.568v-12.879
			c0-2.219,0.569-3.729,1.705-4.537c1.134-0.811,3.317-1.219,6.539-1.219h22.977c3.2,0,5.372,0.395,6.525,1.188
			c1.145,0.789,1.718,2.221,1.718,4.283v0.652l-7.581,0.986V157.265z"/>
		<path fill="#005B8C" d="M506.251,177.197v-24.414h7.695v24.414H506.251z"/>
		<path fill="#005B8C" d="M528.092,177.197v-24.414h5.313l26.935,16.209v-16.209h6.998v24.414h-5.348l-26.859-16.461v16.461H528.092
			z"/>
		<path fill="#005B8C" d="M581.52,177.197v-24.414h34.043v4.316h-26.236v5.326h15.28v4.203h-15.28v6h26.641v4.568H581.52z"/>
		<path fill="#005B8C" d="M627.142,177.197v-24.414h34.041v4.316h-26.237v5.326h15.283v4.203h-15.283v6h26.642v4.568H627.142z"/>
		<path fill="#005B8C" d="M672.767,177.197v-24.414h28.577c2.617,0,4.51,0.373,5.685,1.117c1.17,0.746,1.757,1.947,1.757,3.623
			v5.748c0,1.654-0.587,2.85-1.757,3.58c-1.175,0.736-3.067,1.102-5.685,1.102h-4.36l15.099,9.244h-11.104l-13.301-9.244h-7.295
			v9.244H672.767z M698.047,156.986h-17.664v6.764h17.664c1.343,0,2.267-0.148,2.767-0.449c0.502-0.301,0.752-0.811,0.752-1.525
			v-2.813c0-0.717-0.25-1.227-0.752-1.525C700.314,157.136,699.39,156.986,698.047,156.986z"/>
		<path fill="#005B8C" d="M721.54,177.197v-24.414h7.692v24.414H721.54z"/>
		<path fill="#005B8C" d="M743.378,177.197v-24.414h5.314l26.932,16.209v-16.209h6.997v24.414h-5.35l-26.86-16.461v16.461H743.378z"
			/>
		<path fill="#005B8C" d="M827.917,157.265h-24.15v15.254h24.15v-5.189h-12.603v-4.338h20.188v8.426c0,2.234-0.566,3.76-1.704,4.568
			c-1.139,0.809-3.313,1.211-6.543,1.211h-22.973c-3.225,0-5.404-0.402-6.543-1.211c-1.135-0.809-1.704-2.334-1.704-4.568v-12.879
			c0-2.219,0.569-3.729,1.704-4.537c1.139-0.811,3.318-1.219,6.543-1.219h22.973c3.199,0,5.376,0.395,6.524,1.188
			c1.15,0.789,1.723,2.221,1.723,4.283v0.652l-7.585,0.986V157.265z"/>
	</g>
	<g>
		<rect x="11.906" y="152.763" fill="#005B8C" width="228.572" height="24.467"/>
		<rect x="245.667" y="152.763" fill="#005B8C" width="25.98" height="24.467"/>
		<rect x="276.838" y="152.82" fill="#005B8C" width="20.781" height="24.41"/>
		<rect x="302.817" y="152.763" fill="#005B8C" width="15.585" height="24.467"/>
		<rect x="323.593" y="152.763" fill="#005B8C" width="10.395" height="24.467"/>
		<rect x="339.185" y="152.82" fill="#005B8C" width="5.189" height="24.41"/>
	</g>
</g>
</svg>
